<svg width="24" height="24" viewBox="0 0 24 24" fill="none" xmlns="http://www.w3.org/2000/svg">
<g clip-path="url(#clip0_3_2025)">
<path d="M0 4C0 1.79086 1.79086 0 4 0H20C22.2091 0 24 1.79086 24 4V20C24 22.2091 22.2091 24 20 24H4C1.79086 24 0 22.2091 0 20V4Z" fill="#EFF1F2"/>
<path d="M14.6123 13.2676H11.8711L11.1943 12.9873C10.4424 12.7503 9.86589 12.3903 9.46484 11.9072C9.0638 11.4242 8.86328 10.8158 8.86328 10.082C8.86328 9.42578 9.00911 8.87207 9.30078 8.4209C9.59245 7.96973 10.0072 7.58105 10.5449 7.34863C11.0872 7.11621 11.7275 7 12.4658 7H15.8086L15.8086 17H14.0859L14.0859 8.41406H12.4658C11.8278 8.41406 11.3538 8.56901 11.0439 8.87891C10.734 9.1888 10.5791 9.61719 10.5791 10.1641C10.5791 10.5378 10.6475 10.859 10.7842 11.1279C10.9255 11.3923 11.1328 11.5973 11.4062 11.7432C11.6842 11.8844 12.0283 11.9551 12.4385 11.9551H14.6123V13.2676ZM12.5205 12.502L10.21 17H8.36426L10.7021 12.502H12.5205Z" fill="#656E73"/>
</g>
<defs>
<clipPath id="clip0_3_2025">
<rect width="24" height="24" fill="white"/>
</clipPath>
</defs>
</svg>
